<svg width="100" height="100" viewBox="0 0 100 100" fill="none" xmlns="http://www.w3.org/2000/svg">
<path d="M87.1364 50.542C87.1364 30.2345 70.7722 13.6718 50.4768 13.1965C50.4061 13.1865 50.3363 13.1746 50.2626 13.1746C50.1918 13.1746 50.1231 13.1845 50.0513 13.1855C49.8949 13.1835 49.7404 13.1736 49.583 13.1736C28.8771 13.1736 12.0305 29.9366 12.0305 50.542C12.0305 71.1475 28.8761 87.9105 49.583 87.9105H49.584H49.585C70.2919 87.9095 87.1364 71.1465 87.1364 50.542ZM15.021 50.542C15.021 35.9753 24.1806 23.5042 37.0691 18.5048C33.3084 22.0892 30.9428 27.1673 30.9428 32.8075C30.9428 43.3723 39.5494 51.974 50.152 52.0348C50.1888 52.0378 50.2267 52.0388 50.2646 52.0388C59.2708 52.0388 66.5979 59.3241 66.5979 68.2776C66.5979 77.1424 58.648 84.92 49.586 84.92C49.585 84.92 49.585 84.92 49.584 84.92C30.5262 84.921 15.021 69.4983 15.021 50.542ZM63.6653 81.9266C67.2835 78.3342 69.5874 73.4664 69.5874 68.2786C69.5874 57.7128 60.9807 49.1121 50.3782 49.0513C50.3413 49.0483 50.3034 49.0473 50.2656 49.0473C41.2594 49.0473 33.9322 41.7629 33.9322 32.8095C33.9322 23.858 41.2962 16.2946 50.0573 16.176C68.8978 16.4301 84.147 31.7442 84.147 50.543C84.147 64.5119 75.7227 76.5525 63.6653 81.9266Z" fill="#6D22D6"/>
<path d="M55.7333 72.8744C55.7333 69.875 53.2799 67.4346 50.2646 67.4336C47.2492 67.4336 44.7949 69.874 44.7949 72.8744C44.7949 75.8819 47.2482 78.3272 50.2646 78.3272C53.2809 78.3272 55.7333 75.8819 55.7333 72.8744ZM47.7843 72.8744C47.7843 71.5232 48.8974 70.4231 50.2636 70.4231C51.6317 70.4241 52.7438 71.5232 52.7438 72.8744C52.7438 74.2327 51.6317 75.3378 50.2646 75.3378C48.8974 75.3378 47.7843 74.2327 47.7843 72.8744Z" fill="#6D22D6"/>
<path d="M50.2636 22.6343C47.2482 22.6343 44.7939 25.0787 44.7939 28.0821C44.7939 31.0895 47.2472 33.5349 50.2636 33.5349C53.2799 33.5349 55.7323 31.0885 55.7323 28.0821C55.7333 25.0777 53.2799 22.6343 50.2636 22.6343ZM50.2636 30.5454C48.8964 30.5454 47.7833 29.4403 47.7833 28.0821C47.7833 26.7269 48.8964 25.6238 50.2636 25.6238C51.6307 25.6238 52.7428 26.7259 52.7428 28.0821C52.7438 29.4403 51.6307 30.5454 50.2636 30.5454Z" fill="#6D22D6"/>
</svg>
