<svg width="100" height="100" viewBox="0 0 100 100" fill="none" xmlns="http://www.w3.org/2000/svg">
<path d="M50.2933 16.9553C31.9866 16.9553 17.0936 31.9984 17.0936 50.4873C17.0936 68.9762 31.9876 84.0193 50.2933 84.0193C68.5999 84.0193 83.4939 68.9762 83.4939 50.4873C83.4939 31.9984 68.5999 16.9553 50.2933 16.9553ZM50.2933 80.4249C33.949 80.4249 20.6514 66.9952 20.6514 50.4873C20.6514 33.9794 33.949 20.5487 50.2933 20.5487C66.6376 20.5487 79.9342 33.9794 79.9342 50.4873C79.9342 66.9952 66.6376 80.4249 50.2933 80.4249Z" fill="#6D22D6"/>
<path d="M58.6824 45.0393L51.5216 52.2719V26.5464C51.5216 25.5539 50.7244 24.7498 49.7417 24.7498C48.7591 24.7498 47.9629 25.5539 47.9629 26.5464V56.6096C47.9629 56.7282 47.9747 56.8468 47.9984 56.9634C48.0082 57.0142 48.027 57.061 48.0418 57.1108C48.0596 57.1736 48.0743 57.2374 48.1 57.2992C48.1247 57.359 48.1582 57.4128 48.1888 57.4696C48.2135 57.5164 48.2342 57.5642 48.2638 57.6091C48.394 57.8064 48.5627 57.9758 48.7581 58.1083C48.7946 58.1332 48.834 58.1492 48.8715 58.1701C48.9347 58.206 48.9958 58.2439 49.0639 58.2728C49.1172 58.2947 49.1734 58.3076 49.2277 58.3246C49.2839 58.3415 49.3372 58.3634 49.3954 58.3744C49.5099 58.3973 49.6263 58.4103 49.7427 58.4103C49.8591 58.4103 49.9756 58.3983 50.09 58.3744C50.1482 58.3624 50.2025 58.3415 50.2587 58.3236C50.313 58.3066 50.3682 58.2947 50.4215 58.2728C50.4906 58.2439 50.5537 58.205 50.6178 58.1681C50.6544 58.1472 50.6918 58.1322 50.7274 58.1083C50.827 58.0416 50.9198 57.9658 51.0026 57.8801L61.1993 47.5814C61.8939 46.8799 61.8939 45.7419 61.1993 45.0403C60.5037 44.3368 59.378 44.3368 58.6824 45.0393Z" fill="#6D22D6"/>
<path d="M50.2942 9.01221C27.6514 9.01221 9.23029 27.6177 9.23029 50.4882C9.23029 73.3587 27.6514 91.9632 50.2942 91.9632C72.9371 91.9632 91.3592 73.3577 91.3592 50.4882C91.3592 27.6187 72.9371 9.01221 50.2942 9.01221ZM50.2942 88.3679C29.6138 88.3679 12.788 71.3747 12.788 50.4872C12.788 29.5997 29.6128 12.6056 50.2942 12.6056C70.9757 12.6056 87.7995 29.5997 87.7995 50.4872C87.7995 71.3747 70.9747 88.3679 50.2942 88.3679Z" fill="#6D22D6"/>
</svg>
