<svg width="100" height="100" viewBox="0 0 100 100" fill="none" xmlns="http://www.w3.org/2000/svg">
<path d="M21.4464 71.0723H24.0888L20.6783 82.5406C20.4429 83.3326 20.8938 84.1656 21.6858 84.401C21.8284 84.4439 21.9721 84.4628 22.1127 84.4628C22.7571 84.4628 23.3536 84.0429 23.5471 83.3935L27.211 71.0713H37.5791L41.2429 83.3935C41.4364 84.0429 42.0319 84.4628 42.6773 84.4628C42.819 84.4628 42.9626 84.4429 43.1043 84.401C43.8963 84.1656 44.3471 83.3326 44.1117 82.5406L40.7013 71.0723H43.3915C44.2185 71.0723 44.8878 70.402 44.8878 69.576C44.8878 68.7501 44.2185 68.0798 43.3915 68.0798H39.8115L36.9417 58.4289C36.9147 58.3381 36.8778 58.2543 36.8369 58.1735C39.8963 56.6105 42 53.4344 42 49.7686C42 45.3775 38.9816 41.6868 34.9127 40.6384V33.6658C34.9127 32.8389 34.2434 32.1696 33.4165 32.1696C32.5895 32.1696 31.9202 32.8389 31.9202 33.6658V40.3621C27.0145 40.6942 23.1212 44.78 23.1212 49.7686C23.1212 53.3336 25.1082 56.4409 28.0319 58.0469C27.9561 58.1636 27.8903 58.2883 27.8484 58.4289L24.9786 68.0798H21.4464C20.6195 68.0798 19.9501 68.7501 19.9501 69.576C19.9501 70.402 20.6195 71.0723 21.4464 71.0723ZM26.1137 49.7686C26.1137 46.2144 29.0055 43.3217 32.5606 43.3217C36.1157 43.3217 39.0075 46.2134 39.0075 49.7686C39.0075 53.3237 36.1157 56.2154 32.5606 56.2154C29.0055 56.2154 26.1137 53.3237 26.1137 49.7686ZM30.7172 59.2828C30.7422 59.2 30.7551 59.1162 30.7651 59.0324C31.3466 59.1451 31.9461 59.209 32.5606 59.209C33.0633 59.209 33.5531 59.1581 34.0349 59.0823C34.0449 59.1491 34.0529 59.2159 34.0728 59.2828L36.6893 68.0798H28.1018L30.7172 59.2828Z" fill="#6D22D6"/>
<path d="M53.3666 84.0399H61.3466C62.1726 84.0399 62.8429 83.3695 62.8429 82.5436V42.6384C62.8429 42.4438 62.805 42.2513 62.7312 42.0718L58.7412 32.3271C58.5117 31.7655 57.9651 31.3975 57.3566 31.3975C56.7481 31.3975 56.2025 31.7645 55.9721 32.3271L51.982 42.0718C51.9013 42.2683 51.8653 42.4728 51.8703 42.6723V82.5436C51.8703 83.3695 52.5407 84.0399 53.3666 84.0399ZM54.8628 81.0473V78.0548H59.8504V81.0473H54.8628ZM57.3566 36.8428L59.8504 42.9336V75.0623H54.8628V42.9336L57.3566 36.8428Z" fill="#6D22D6"/>
<path d="M72.3192 16.2095H12.4688C11.6419 16.2095 10.9726 16.8788 10.9726 17.7057V94.5137C10.9726 95.3396 11.6419 96.01 12.4688 96.01H72.3192C73.1451 96.01 73.8155 95.3396 73.8155 94.5137V17.7057C73.8155 16.8788 73.1451 16.2095 72.3192 16.2095ZM70.8229 93.0175H13.9651V19.202H70.8229V93.0175Z" fill="#6D22D6"/>
<path d="M84.2893 4.23938H24.4389C23.612 4.23938 22.9426 4.90871 22.9426 5.73564V13.7157C22.9426 14.5426 23.612 15.2119 24.4389 15.2119C25.2658 15.2119 25.9351 14.5426 25.9351 13.7157V7.2319H82.793V81.0474H77.3067C76.4808 81.0474 75.8105 81.7177 75.8105 82.5436C75.8105 83.3696 76.4808 84.0399 77.3067 84.0399H84.2893C85.1152 84.0399 85.7855 83.3696 85.7855 82.5436V5.73564C85.7855 4.90871 85.1152 4.23938 84.2893 4.23938Z" fill="#6D22D6"/>
</svg>
