<svg width="216" height="76" viewBox="0 0 216 76" fill="none" xmlns="http://www.w3.org/2000/svg">
<g filter="url(#filter0_d_28_415)">
<rect x="1" y="1" width="208" height="68" rx="15" stroke="#400B8B" stroke-width="2" shape-rendering="crispEdges"/>
</g>
<path d="M20.164 44V27.2H21.628L29.308 40.304H28.54L36.148 27.2H37.612V44H35.908V29.864H36.316L29.308 41.864H28.468L21.412 29.864H21.868V44H20.164ZM48.0494 44.12C46.8334 44.12 45.7374 43.848 44.7614 43.304C43.8014 42.744 43.0414 41.984 42.4814 41.024C41.9214 40.048 41.6414 38.936 41.6414 37.688C41.6414 36.424 41.9214 35.312 42.4814 34.352C43.0414 33.392 43.8014 32.64 44.7614 32.096C45.7214 31.552 46.8174 31.28 48.0494 31.28C49.2974 31.28 50.4014 31.552 51.3614 32.096C52.3374 32.64 53.0974 33.392 53.6414 34.352C54.2014 35.312 54.4814 36.424 54.4814 37.688C54.4814 38.936 54.2014 40.048 53.6414 41.024C53.0974 41.984 52.3374 42.744 51.3614 43.304C50.3854 43.848 49.2814 44.12 48.0494 44.12ZM48.0494 42.608C48.9614 42.608 49.7694 42.408 50.4734 42.008C51.1774 41.592 51.7294 41.016 52.1294 40.28C52.5454 39.528 52.7534 38.664 52.7534 37.688C52.7534 36.696 52.5454 35.832 52.1294 35.096C51.7294 34.36 51.1774 33.792 50.4734 33.392C49.7694 32.976 48.9694 32.768 48.0734 32.768C47.1774 32.768 46.3774 32.976 45.6734 33.392C44.9694 33.792 44.4094 34.36 43.9934 35.096C43.5774 35.832 43.3694 36.696 43.3694 37.688C43.3694 38.664 43.5774 39.528 43.9934 40.28C44.4094 41.016 44.9694 41.592 45.6734 42.008C46.3774 42.408 47.1694 42.608 48.0494 42.608ZM58.1232 44V31.4H59.8272V41.408L68.2512 31.4H69.7632V44H68.0592V33.968L59.6592 44H58.1232ZM90.1679 44L84.9839 37.76L86.3999 36.92L92.1839 44H90.1679ZM80.9279 44V31.4H82.6319V44H80.9279ZM82.1039 38.384V36.92H86.1599V38.384H82.1039ZM86.5439 37.88L84.9599 37.64L89.9759 31.4H91.8239L86.5439 37.88ZM99.6119 44.12C98.3959 44.12 97.2999 43.848 96.3239 43.304C95.3639 42.744 94.6039 41.984 94.0439 41.024C93.4839 40.048 93.2039 38.936 93.2039 37.688C93.2039 36.424 93.4839 35.312 94.0439 34.352C94.6039 33.392 95.3639 32.64 96.3239 32.096C97.2839 31.552 98.3799 31.28 99.6119 31.28C100.86 31.28 101.964 31.552 102.924 32.096C103.9 32.64 104.66 33.392 105.204 34.352C105.764 35.312 106.044 36.424 106.044 37.688C106.044 38.936 105.764 40.048 105.204 41.024C104.66 41.984 103.9 42.744 102.924 43.304C101.948 43.848 100.844 44.12 99.6119 44.12ZM99.6119 42.608C100.524 42.608 101.332 42.408 102.036 42.008C102.74 41.592 103.292 41.016 103.692 40.28C104.108 39.528 104.316 38.664 104.316 37.688C104.316 36.696 104.108 35.832 103.692 35.096C103.292 34.36 102.74 33.792 102.036 33.392C101.332 32.976 100.532 32.768 99.6359 32.768C98.7399 32.768 97.9399 32.976 97.2359 33.392C96.5319 33.792 95.9719 34.36 95.5559 35.096C95.1399 35.832 94.9319 36.696 94.9319 37.688C94.9319 38.664 95.1399 39.528 95.5559 40.28C95.9719 41.016 96.5319 41.592 97.2359 42.008C97.9399 42.408 98.7319 42.608 99.6119 42.608ZM109.686 44V31.4H111.39V36.968H119.334V31.4H121.038V44H119.334V38.432H111.39V44H109.686ZM128.281 44V32.432L128.713 32.888H123.505V31.4H134.761V32.888H129.553L129.985 32.432V44H128.281ZM145.049 44V41.216L144.977 40.76V36.104C144.977 35.032 144.673 34.208 144.065 33.632C143.473 33.056 142.585 32.768 141.401 32.768C140.585 32.768 139.809 32.904 139.073 33.176C138.337 33.448 137.713 33.808 137.201 34.256L136.433 32.984C137.073 32.44 137.841 32.024 138.737 31.736C139.633 31.432 140.577 31.28 141.569 31.28C143.201 31.28 144.457 31.688 145.337 32.504C146.233 33.304 146.681 34.528 146.681 36.176V44H145.049ZM140.705 44.12C139.761 44.12 138.937 43.968 138.233 43.664C137.545 43.344 137.017 42.912 136.649 42.368C136.281 41.808 136.097 41.168 136.097 40.448C136.097 39.792 136.249 39.2 136.553 38.672C136.873 38.128 137.385 37.696 138.089 37.376C138.809 37.04 139.769 36.872 140.969 36.872H145.313V38.144H141.017C139.801 38.144 138.953 38.36 138.473 38.792C138.009 39.224 137.777 39.76 137.777 40.4C137.777 41.12 138.057 41.696 138.617 42.128C139.177 42.56 139.961 42.776 140.969 42.776C141.929 42.776 142.753 42.56 143.441 42.128C144.145 41.68 144.657 41.04 144.977 40.208L145.361 41.384C145.041 42.216 144.481 42.88 143.681 43.376C142.897 43.872 141.905 44.12 140.705 44.12ZM160.457 44L155.273 37.76L156.689 36.92L162.473 44H160.457ZM151.217 44V31.4H152.921V44H151.217ZM152.393 38.384V36.92H156.449V38.384H152.393ZM156.833 37.88L155.249 37.64L160.265 31.4H162.113L156.833 37.88ZM167.304 44V32.432L167.736 32.888H162.528V31.4H173.784V32.888H168.576L169.008 32.432V44H167.304ZM188.536 44V31.4H190.24V44H188.536ZM181.552 35.84C183.136 35.856 184.344 36.208 185.176 36.896C186.008 37.584 186.424 38.576 186.424 39.872C186.424 41.216 185.976 42.248 185.08 42.968C184.184 43.688 182.904 44.04 181.24 44.024L176.248 44V31.4H177.952V35.792L181.552 35.84ZM181.12 42.728C182.304 42.744 183.192 42.512 183.784 42.032C184.392 41.536 184.696 40.816 184.696 39.872C184.696 38.928 184.4 38.24 183.808 37.808C183.216 37.36 182.32 37.128 181.12 37.112L177.952 37.064V42.68L181.12 42.728Z" fill="#AB7EEB"/>
<defs>
<filter id="filter0_d_28_415" x="0" y="0" width="216" height="76" filterUnits="userSpaceOnUse" color-interpolation-filters="sRGB">
<feFlood flood-opacity="0" result="BackgroundImageFix"/>
<feColorMatrix in="SourceAlpha" type="matrix" values="0 0 0 0 0 0 0 0 0 0 0 0 0 0 0 0 0 0 127 0" result="hardAlpha"/>
<feOffset dx="3" dy="3"/>
<feGaussianBlur stdDeviation="1.5"/>
<feComposite in2="hardAlpha" operator="out"/>
<feColorMatrix type="matrix" values="0 0 0 0 0 0 0 0 0 0 0 0 0 0 0 0 0 0 0.15 0"/>
<feBlend mode="normal" in2="BackgroundImageFix" result="effect1_dropShadow_28_415"/>
<feBlend mode="normal" in="SourceGraphic" in2="effect1_dropShadow_28_415" result="shape"/>
</filter>
</defs>
</svg>
