<svg width="100" height="100" viewBox="0 0 100 100" fill="none" xmlns="http://www.w3.org/2000/svg">
<path d="M50.5105 26.1296C37.2265 26.1296 26.4189 36.9664 26.4189 50.2874C26.4189 57.9563 30.0397 65.115 36.1488 69.666V85.9834C36.1488 86.8084 36.8159 87.4781 37.6401 87.4781H40.036C40.7637 92.6269 45.1768 96.6029 50.5105 96.6029C55.8462 96.6029 60.2623 92.6269 60.991 87.4781H63.1026C63.9258 87.4781 64.5939 86.8084 64.5939 85.9834V69.8752C70.873 65.3293 74.6091 58.0629 74.6091 50.2874C74.6091 36.9664 63.7985 26.1296 50.5105 26.1296ZM50.5105 93.6144C46.8252 93.6144 43.7442 90.9727 43.0503 87.4791H57.9777C57.2818 90.9717 54.1989 93.6144 50.5105 93.6144ZM61.6114 84.4886H39.1313V70.3904H61.6114V84.4886ZM54.8153 51.6027V67.4009H45.9205V51.6027H54.8153ZM62.9197 67.4009H57.7978V51.6027H62.5051C63.3283 51.6027 63.9964 50.9331 63.9964 50.108C63.9964 49.2819 63.3283 48.6133 62.5051 48.6133H38.2366C37.4124 48.6133 36.7453 49.2819 36.7453 50.108C36.7453 50.9331 37.4124 51.6027 38.2366 51.6027H42.937V67.4009H38.1093C32.6464 63.42 29.4004 57.0824 29.4004 50.2874C29.4004 38.6156 38.8699 29.1191 50.5095 29.1191C62.1522 29.1191 71.6256 38.6146 71.6256 50.2874C71.6266 57.0714 68.3806 63.413 62.9197 67.4009Z" fill="#6D22D6"/>
<path d="M50.3673 21.1074C51.1905 21.1074 51.8586 20.4388 51.8586 19.6127V4.53891C51.8586 3.71283 51.1905 3.04419 50.3673 3.04419C49.5432 3.04419 48.8761 3.71283 48.8761 4.53891V19.6127C48.8761 20.4388 49.5432 21.1074 50.3673 21.1074Z" fill="#6D22D6"/>
<path d="M17.5251 48.6133H2.48642C1.66226 48.6133 0.995178 49.2819 0.995178 50.108C0.995178 50.9331 1.66226 51.6027 2.48642 51.6027H17.5251C18.3493 51.6027 19.0164 50.9331 19.0164 50.108C19.0164 49.2829 18.3493 48.6133 17.5251 48.6133Z" fill="#6D22D6"/>
<path d="M96.931 48.6133H81.8993C81.0761 48.6133 80.408 49.2819 80.408 50.108C80.408 50.9331 81.0761 51.6027 81.8993 51.6027H96.931C97.7542 51.6027 98.4223 50.9331 98.4223 50.108C98.4223 49.2829 97.7542 48.6133 96.931 48.6133Z" fill="#6D22D6"/>
<path d="M26.6307 28.7494C26.9131 28.9975 27.263 29.1181 27.611 29.1181C28.0265 29.1181 28.4401 28.9447 28.7344 28.6059C29.2762 27.9841 29.2116 27.0404 28.5912 26.4974L17.2647 16.5863C16.6453 16.0433 15.7019 16.108 15.1611 16.7298C14.6192 17.3516 14.6839 18.2953 15.3042 18.8384L26.6307 28.7494Z" fill="#6D22D6"/>
<path d="M70.5668 29.118C70.9147 29.118 71.2637 28.9965 71.546 28.7493L82.8785 18.8383C83.4989 18.2952 83.5625 17.3516 83.0217 16.7288C82.4818 16.107 81.5384 16.0412 80.918 16.5853L69.5855 26.4963C68.9652 27.0394 68.9016 27.9831 69.4424 28.6059C69.7367 28.9457 70.1502 29.118 70.5668 29.118Z" fill="#6D22D6"/>
</svg>
