<svg width="100" height="100" viewBox="0 0 100 100" fill="none" xmlns="http://www.w3.org/2000/svg">
<path d="M81.23 17H18.77C15.06 17 12.09 19.43 12 22.58V68.32C12 71.45 15 74 18.77 74H48V85H30.5C30.1022 85 29.7206 85.158 29.4393 85.4393C29.158 85.7206 29 86.1022 29 86.5C29 86.8978 29.158 87.2794 29.4393 87.5607C29.7206 87.842 30.1022 88 30.5 88H69.5C69.8978 88 70.2794 87.842 70.5607 87.5607C70.842 87.2794 71 86.8978 71 86.5C71 86.1022 70.842 85.7206 70.5607 85.4393C70.2794 85.158 69.8978 85 69.5 85H51V74H81.23C85 74 88 71.45 88 68.32V22.68C88 19.55 85 17 81.23 17ZM85 68.32C85 69.77 83.27 71 81.23 71H18.77C16.77 71 15 69.77 15 68.32V22.62C15 21.18 16.73 20 18.77 20H81.23C83.23 20 85 21.23 85 22.68V68.32Z" fill="#6D22D6"/>
<path d="M55.27 36.63C54.918 36.4545 54.5111 36.4243 54.137 36.5459C53.7629 36.6674 53.4516 36.9311 53.27 37.28L45.19 53C45.1001 53.1754 45.0455 53.3667 45.0295 53.5631C45.0135 53.7595 45.0363 53.9571 45.0967 54.1447C45.157 54.3322 45.2537 54.5061 45.3813 54.6563C45.5088 54.8065 45.6647 54.9301 45.84 55.02C46.0153 55.11 46.2067 55.1645 46.403 55.1806C46.5994 55.1966 46.7971 55.1738 46.9846 55.1134C47.1722 55.053 47.3461 54.9563 47.4963 54.8288C47.6465 54.7012 47.7701 54.5454 47.86 54.37L55.92 38.62C56.0924 38.2691 56.121 37.8646 55.9996 37.4929C55.8782 37.1212 55.6164 36.8116 55.27 36.63V36.63Z" fill="#6D22D6"/>
<path d="M64.86 36.08C64.5756 35.815 64.1995 35.6707 63.8109 35.6776C63.4223 35.6845 63.0516 35.8419 62.7767 36.1167C62.5019 36.3915 62.3445 36.7623 62.3376 37.1509C62.3308 37.5395 62.475 37.9156 62.74 38.2L70.22 45.6699L62.74 53.14C62.5926 53.2773 62.4744 53.4429 62.3924 53.6269C62.3104 53.8109 62.2664 54.0095 62.2628 54.2109C62.2593 54.4123 62.2963 54.6124 62.3717 54.7991C62.4472 54.9859 62.5595 55.1556 62.7019 55.298C62.8444 55.4405 63.014 55.5528 63.2008 55.6282C63.3876 55.7036 63.5876 55.7407 63.789 55.7371C63.9904 55.7336 64.1891 55.6895 64.3731 55.6075C64.5571 55.5255 64.7227 55.4073 64.86 55.26L73.4 46.73C73.6809 46.4487 73.8387 46.0675 73.8387 45.6699C73.8387 45.2724 73.6809 44.8912 73.4 44.61L64.86 36.08Z" fill="#6D22D6"/>
<path d="M38.4 36.08C38.1188 35.7991 37.7375 35.6414 37.34 35.6414C36.9425 35.6414 36.5613 35.7991 36.28 36.08L27.74 44.62C27.4591 44.9013 27.3013 45.2825 27.3013 45.68C27.3013 46.0775 27.4591 46.4588 27.74 46.74L36.28 55.28C36.5644 55.545 36.9405 55.6892 37.3291 55.6824C37.7177 55.6755 38.0884 55.5181 38.3633 55.2433C38.6381 54.9685 38.7955 54.5977 38.8024 54.2091C38.8092 53.8205 38.665 53.4444 38.4 53.16L30.92 45.69L38.4 38.2C38.6809 37.9188 38.8387 37.5375 38.8387 37.14C38.8387 36.7425 38.6809 36.3613 38.4 36.08V36.08Z" fill="#6D22D6"/>
</svg>
